<?xml version="1.0" standalone="no"?>
<!DOCTYPE svg PUBLIC "-//W3C//DTD SVG 1.1//EN" "http://www.w3.org/Graphics/SVG/1.1/DTD/svg11.dtd">
<svg viewBox="0 0 32 32" version="1.1" xmlns="http://www.w3.org/2000/svg" xmlns:xlink="http://www.w3.org/1999/xlink" style="border-bottom-color:rgb(255, 255, 255);border-left-color:rgb(255, 255, 255);border-right-color:rgb(255, 255, 255);border-top-color:rgb(255, 255, 255);bottom:1px;color:rgb(255, 255, 255);font-size:12px;font-weight:700;height:12px;left:0px;line-height:14.4px;outline-color:rgb(255, 255, 255);position:relative;right:0px;text-decoration:none solid rgb(255, 255, 255);text-decoration-color:rgb(255, 255, 255);text-decoration-skip:ink;top:-1px;vertical-align:middle;width:12px;column-rule-color:rgb(255, 255, 255);perspective-origin:6px 6px;-webkit-text-emphasis-color:rgb(255, 255, 255);-webkit-text-fill-color:rgb(255, 255, 255);-webkit-text-stroke-color:rgb(255, 255, 255);transform-origin:6px 6px;fill:rgb(255, 255, 255);caret-color:rgb(255, 255, 255);">
    <title style="border-bottom-color:rgb(255, 255, 255);border-left-color:rgb(255, 255, 255);border-right-color:rgb(255, 255, 255);border-top-color:rgb(255, 255, 255);color:rgb(255, 255, 255);font-size:12px;font-weight:700;height:auto;line-height:14.4px;outline-color:rgb(255, 255, 255);overflow-x:visible;overflow-y:visible;text-decoration:none solid rgb(255, 255, 255);text-decoration-color:rgb(255, 255, 255);text-decoration-skip:ink;width:auto;backface-visibility:visible;column-rule-color:rgb(255, 255, 255);perspective-origin:50% 50%;-webkit-text-emphasis-color:rgb(255, 255, 255);-webkit-text-fill-color:rgb(255, 255, 255);-webkit-text-stroke-color:rgb(255, 255, 255);transform-origin:0px 0px;fill:rgb(255, 255, 255);caret-color:rgb(255, 255, 255);"/>
    <path d="M20.8 18.1c0 2.7-2.2 4.8-4.8 4.8s-4.8-2.1-4.8-4.8c0-2.7 2.2-4.8 4.8-4.8 2.7.1 4.8 2.2 4.8 4.8zm11.2-7.4v14.9c0 2.3-1.9 4.3-4.3 4.3h-23.4c-2.4 0-4.3-1.9-4.3-4.3v-15c0-2.3 1.9-4.3 4.3-4.3h3.7l.8-2.3c.4-1.1 1.7-2 2.9-2h8.6c1.2 0 2.5.9 2.9 2l.8 2.4h3.7c2.4 0 4.3 1.9 4.3 4.3zm-8.6 7.5c0-4.1-3.3-7.5-7.5-7.5-4.1 0-7.5 3.4-7.5 7.5s3.3 7.5 7.5 7.5c4.2-.1 7.5-3.4 7.5-7.5z" style="border-bottom-color:rgb(255, 255, 255);border-left-color:rgb(255, 255, 255);border-right-color:rgb(255, 255, 255);border-top-color:rgb(255, 255, 255);color:rgb(255, 255, 255);font-size:12px;font-weight:700;height:auto;line-height:14.4px;outline-color:rgb(255, 255, 255);overflow-x:visible;overflow-y:visible;text-decoration:none solid rgb(255, 255, 255);text-decoration-color:rgb(255, 255, 255);text-decoration-skip:ink;width:auto;backface-visibility:visible;column-rule-color:rgb(255, 255, 255);perspective-origin:0px 0px;-webkit-text-emphasis-color:rgb(255, 255, 255);-webkit-text-fill-color:rgb(255, 255, 255);-webkit-text-stroke-color:rgb(255, 255, 255);transform-origin:0px 0px;fill:rgb(255, 255, 255);d:path('M 20.8 18.1 c 0 2.7 -2.2 4.8 -4.8 4.8 s -4.8 -2.1 -4.8 -4.8 c 0 -2.7 2.2 -4.8 4.8 -4.8 c 2.7 0.1 4.8 2.2 4.8 4.8 Z m 11.2 -7.4 v 14.9 c 0 2.3 -1.9 4.3 -4.3 4.3 h -23.4 c -2.4 0 -4.3 -1.9 -4.3 -4.3 v -15 c 0 -2.3 1.9 -4.3 4.3 -4.3 h 3.7 l 0.8 -2.3 c 0.4 -1.1 1.7 -2 2.9 -2 h 8.6 c 1.2 0 2.5 0.9 2.9 2 l 0.8 2.4 h 3.7 c 2.4 0 4.3 1.9 4.3 4.3 Z m -8.6 7.5 c 0 -4.1 -3.3 -7.5 -7.5 -7.5 c -4.1 0 -7.5 3.4 -7.5 7.5 s 3.3 7.5 7.5 7.5 c 4.2 -0.1 7.5 -3.4 7.5 -7.5 Z');caret-color:rgb(255, 255, 255);"/>
</svg>